<svg width="189" height="264" viewBox="0 0 189 264" fill="none" xmlns="http://www.w3.org/2000/svg">
<path fill-rule="evenodd" clip-rule="evenodd" d="M18.835 0H30.5474V10.3729H41.3428V0H53.0547V31.3916H41.3428V20.9277H30.6489V31.3916H18.835V0ZM68.5352 10.4639H58.1982V0H90.6357V10.4639H80.2476V31.3916H68.5352V10.4639ZM95.7788 0H108.051L115.588 11.0553L123.125 0H135.396V31.3916H123.685V15.8323L115.486 27.1151L107.288 15.8323V31.3916H95.7788V0ZM141.202 0H152.914V21.0188H169.515V31.3916H141.202V0ZM17.1323 242.416L0 50.2266H188.35L171.218 242.312L94.019 263.69L17.1323 242.416ZM37.6699 87.8966H94.1748H150.68L148.594 112.287H94.1748V112.268H62.3535L64.4355 137.23H94.1748V137.269H146.559L140.352 212.159L94.1748 226.02L47.9795 212.062L44.8076 173.787H67.4092L68.9956 193.274L94.1748 200.575V200.662L119.349 193.356L121.98 161.659H94.1748V161.548H43.8159L37.6699 87.8966Z" fill="white"/>
</svg>
