<svg width="274" height="274" viewBox="0 0 274 274" fill="none" xmlns="http://www.w3.org/2000/svg">
<path fill-rule="evenodd" clip-rule="evenodd" d="M0.990234 0.358398H273.691V273.06H0.990234V0.358398ZM72.698 228.244L93.566 215.61C97.5926 222.747 101.257 228.787 110.035 228.787C118.461 228.787 123.766 225.495 123.766 212.681V125.544H149.395V213.043C149.395 239.588 133.832 251.668 111.132 251.668C90.6366 251.679 78.7379 241.058 72.698 228.244ZM184.184 213.418L163.316 225.497C170.826 240.326 186.198 251.681 209.995 251.681C234.346 251.681 252.466 239.047 252.466 215.985C252.466 194.574 240.205 185.05 218.421 175.719L212.019 172.971C201.036 168.209 196.275 165.098 196.275 157.407C196.275 151.186 201.026 146.425 208.536 146.425C215.854 146.425 220.615 149.535 225.004 157.407L244.956 144.593C236.53 129.764 224.812 124.087 208.525 124.087C185.644 124.087 170.997 138.734 170.997 157.951C170.997 178.819 183.257 188.704 201.75 196.576L208.152 199.325C219.87 204.448 226.826 207.559 226.826 216.347C226.826 223.676 220.061 228.981 209.441 228.981C196.818 228.981 189.681 222.387 184.184 213.418Z" fill="white"/>
</svg>
